# xmcd
#
# Track frame offsets: 
#        150
#        14351
#        29452
#        40813
#        54742
#        65995
#        79584
#        91905
#        107182
#        116735
#        126732
#        142681
#        157874
#        168659
#        187488
#        203049
#        213286
#        224107
#        235300
#
# Disc length: 3196 seconds
#
# Revision: 0
# Processed by: cddbd v1.5.2PL0 Copyright (c) Steve Scherf et al.
# Submitted via: ExactAudioCopy v0.99pb4
#
DISCID=230c7a13
DTITLE=Dick Hipple - Country Hits Volume Three
DYEAR=1900
DGENRE=Western
TTITLE0=Should I Come Home, Or Should I Go Crazy
TTITLE1=Touch the Morning
TTITLE2=Gonna Find Me a Bluebird
TTITLE3=Blue Moon of Kentucky
TTITLE4=I'll Fly Away
TTITLE5=I Wouldn't Change You If I Could
TTITLE6=Blue Velvet
TTITLE7=Coca Cola Cowboy
TTITLE8=Billy Bayou
TTITLE9=Blue Boy
TTITLE10=Tulsa Time
TTITLE11=The Cowboy Rides Away
TTITLE12=Rainbow Stew
TTITLE13=Lord, I Hope this Day Is Good
TTITLE14=Where'm I Gonna Live When I Get Home
TTITLE15=Your Nobody Til Somebody Loves You
TTITLE16=Wings Of a Dove
TTITLE17=Pick Me Up On Your Way Down
TTITLE18=Happy Trails
EXTD=
EXTT0=
EXTT1=
EXTT2=
EXTT3=
EXTT4=
EXTT5=
EXTT6=
EXTT7=
EXTT8=
EXTT9=
EXTT10=
EXTT11=
EXTT12=
EXTT13=
EXTT14=
EXTT15=
EXTT16=
EXTT17=
EXTT18=
PLAYORDER=
